/* XPM */
static char *c7d825ebfea246f8837444e26d95faffvAlaZxJCnNRYHyzO[] = {
/* columns rows colors chars-per-pixel */
"32 32 222 2 ",
"   c #010207",
".  c #01040A",
"X  c #040A0D",
"o  c #0A060C",
"O  c #1B0C0B",
"+  c #1B0403",
"@  c #050D12",
"#  c #0C0E14",
"$  c #0C0D19",
"%  c #090612",
"&  c #130A14",
"*  c #0C1116",
"=  c #0B131A",
"-  c #081619",
";  c #111115",
":  c #1C1313",
">  c #14131C",
",  c #1B151B",
"<  c #161A1E",
"1  c #1B1A1D",
"2  c #290903",
"3  c #320B01",
"4  c #29120D",
"5  c #25120F",
"6  c #33150C",
"7  c #3B180B",
"8  c #231513",
"9  c #241A1B",
"0  c #2B1C1D",
"q  c #291616",
"w  c #321D1A",
"e  c #371915",
"r  c #1C211D",
"t  c #2E201F",
"y  c #3B2119",
"u  c #0E1B21",
"i  c #161622",
"p  c #191622",
"a  c #131C22",
"s  c #1C1B23",
"d  c #1E1E2A",
"f  c #221C24",
"g  c #2A1E24",
"h  c #241E28",
"j  c #271B28",
"k  c #1D2125",
"l  c #1C242B",
"z  c #1C2629",
"x  c #1F2233",
"c  c #222225",
"v  c #2D2324",
"b  c #24232B",
"n  c #2B242C",
"m  c #24292E",
"M  c #2B292D",
"N  c #232824",
"B  c #322324",
"V  c #3B2222",
"C  c #392529",
"Z  c #382A2C",
"A  c #2E332F",
"S  c #3A302F",
"D  c #242531",
"F  c #2C2630",
"G  c #242B32",
"H  c #2D2C34",
"J  c #2A2D3A",
"K  c #262C3A",
"L  c #322C33",
"P  c #382D34",
"I  c #233235",
"U  c #2C3236",
"Y  c #2D333B",
"T  c #2C3A3D",
"R  c #27363B",
"E  c #323236",
"W  c #3A3135",
"Q  c #34343B",
"!  c #3B363D",
"~  c #343A3D",
"^  c #3B393E",
"/  c #383937",
"(  c #491F13",
")  c #4B2416",
"_  c #51261A",
"`  c #472A27",
"'  c #4B3128",
"]  c #5A332A",
"[  c #473839",
"{  c #5A3E3C",
"}  c #553A38",
"|  c #502C2A",
" . c #643D33",
".. c #703A2E",
"X. c #36403F",
"o. c #5F443D",
"O. c #764439",
"+. c #2F3D40",
"@. c #343443",
"#. c #343B42",
"$. c #3B3C43",
"%. c #3C3C4B",
"&. c #383B46",
"*. c #433C41",
"=. c #463944",
"-. c #573D46",
";. c #3C4045",
":. c #354249",
">. c #3C444B",
",. c #3A474C",
"<. c #3E4552",
"1. c #3D4A52",
"2. c #43444C",
"3. c #44494C",
"4. c #484245",
"5. c #564C4C",
"6. c #454C54",
"7. c #494A54",
"8. c #474A55",
"9. c #534C51",
"0. c #4D5355",
"q. c #4C535B",
"w. c #4A5A5B",
"e. c #54545D",
"r. c #555556",
"t. c #654A46",
"y. c #754947",
"u. c #7A534A",
"i. c #6A5857",
"p. c #775955",
"a. c #68534E",
"s. c #79625D",
"d. c #67625F",
"f. c #515562",
"g. c #545B65",
"h. c #5B5C64",
"j. c #565E6A",
"k. c #5C5D6A",
"l. c #5B5764",
"z. c #675863",
"x. c #735A60",
"c. c #5B626C",
"v. c #586568",
"b. c #5E6470",
"n. c #616169",
"m. c #626D6F",
"M. c #7C656A",
"N. c #636573",
"B. c #646A74",
"V. c #696E79",
"C. c #686B74",
"Z. c #6B7175",
"A. c #6D727D",
"S. c #76767A",
"D. c #776670",
"F. c #844738",
"G. c #8A5B4D",
"H. c #87564C",
"J. c #9B5C4B",
"K. c #8C5F58",
"L. c #895D55",
"P. c #915B52",
"I. c #9B5F54",
"U. c #874C48",
"Y. c #89655C",
"T. c #96675D",
"R. c #A76859",
"E. c #B3725E",
"W. c #876A6A",
"Q. c #9A6A64",
"!. c #88716C",
"~. c #95746C",
"^. c #9B7B7A",
"/. c #887178",
"(. c #A06B63",
"). c #B67A6B",
"_. c #A87974",
"`. c #AE786E",
"'. c #9A857C",
"]. c #AB827C",
"[. c #AB8077",
"{. c #BA847B",
"}. c #B88578",
"|. c #C58672",
" X c #CB8B79",
".X c #6D7681",
"XX c #727782",
"oX c #757C88",
"OX c #778288",
"+X c #7B8390",
"@X c #828389",
"#X c #9D8586",
"$X c #828B93",
"%X c #868A99",
"&X c #8A9699",
"*X c #A38D87",
"=X c #AC8B87",
"-X c #BD8F83",
";X c #B68A86",
":X c #B6928C",
">X c #AF9294",
",X c #B89796",
"<X c #97A4AA",
"1X c #A2A6A8",
"2X c #A8AFB9",
"3X c #C58E84",
"4X c #C68D86",
"5X c #CD9182",
"6X c #CA9388",
"7X c #D2988E",
"8X c #D99885",
"9X c #C79C98",
"0X c #E19C8D",
"qX c #CFA49D",
"wX c #D8A397",
"eX c #E8A698",
"rX c #F5B19E",
"tX c #CBA5A3",
"yX c #D5B5B2",
"uX c #DDAAA7",
"iX c #F3B7A6",
"pX c #E6B2AB",
/* pixels */
"6.a a - q.$XG c.k.H e.D G l z - ~ 6.l >.6.$XN.@.8.%.3.e.q.Z.0.b ",
"$Xz R @ #.<X:.8.N.$.h.F H U ~ U < 0.#.#.3.2X$X@.q.q.J 6.2.U ~ < ",
"A.m >.u I +X>.:.e.Q 9.1 c f c 1 M M M 4.#.C.k.f.f.c.#.l g.;.X b ",
"S.#.G l I T z q.n.2.9.8 g 9 9 : v 0 B W H C.XXA.B.<.j.6.q.$.s H ",
"l.e.2.* R .Xv.T S.9.*.O q w y w 2 4 0 O g @X&Xq.oX6.#.q.c.H n s ",
"!   H a :.&Xw.z r.M 0 + 4 6 6 3 e e e 5 v S.1Xv.v.v.:.J h.2.& f ",
"=.o 2.= R OX0.~ / : 0 ` ]  . .] _ ] ] e 5 9.1Xv.1.:.$XA.Y $.f L ",
"n & H * :.w.I X./ 8 ' u.T.`.{.}.`.(.Y.p.[ S S.#.q.#.oX2XN.E f j ",
"f o $.* +.b.T 0.r.O o.~.}.wX5X8X5X7X{.;X*X4.9.Q 1.1.j.6.A.Q f n ",
"*.% Q @ T &Xm.3.d.q t.[.wXiXeXeXeXeX6XqXyX5.9.7.6.G j.8.&.$.p n ",
"f   $.s #.OX3.c 5.w p._.wXiXeX8X0XeX7X:XyXi.9.7.B.%.+XXX8.Q > b ",
", o Q # G >.< *.O 6 L.Q.R.J.|.rX XE.P.K.tX/.z.Q 8.K g.c.V.b i s ",
"M ; m X Q h.! 9.i.{ y.P.I.F.R.8XR...H.Q.,XM.D.z.8.x <.<.g.b b i ",
"M % Y < >.@Xh.n x.^.;X{.R.J.E.8X).F.P._.tX>X/.=.l.%.%XB.J Y l k ",
"3.; m @ G n.2.g ` W._.4X3X5X X|.|.).4X-X,X>Xz.j @.J %X.XY G a k ",
"C.k *   Y @., [ -.W.Q.uXpX6X). X5X3X9X9X9X#X=.F %.@.N.c.V.G a a ",
"$.s s   $.e.n n [ W.W.tXpX4X).7X{.3X-XtX>XM.=.H %.K B.oXq.$ s p ",
"Q Q M # m e.n n & V } =X].H.U...O.G.].=Xt.[ W 2.d Y %X>.8.d s f ",
"~ m # . Q Z.E 1 g 0 w p.y.O.Q.T.G...u.p.V Z W 7.G D +Xb.%.s i d ",
"# X *   ~ 3.m c , 9 + e  ._.wXpX-Xu.] ' e W ^ Q Q l c.%Xq.$ i s ",
". X = . U ~ k 1 : 0 V e _ Q.P.O.G.G._ y 4 0 W c $ Y .Xj.f.$ s s ",
"G m . . ~ Z.~ ; o v i.{ 2 ]  ._ ) _ 2 { } 8 f p % Y %Xf.D d i s ",
"l Y < @ G e.Q 9 v a.#X~.7 3 ( ) 7 6 y !.i.9 : < d G oX.Xi d > s ",
"X s k . < < > : : i.!.:XY.( 3 2 3 ' W.*X[ : , s s K k.k.8.$ > s ",
"H H c p s f 1 9 : S !.=X=X].K.u.Y.'.*XW.t : , < p b e.k.H i b > ",
"n b f f f h g g B O [ ^.,X:X].,X>X'.s.[ 9 9 f # > > d D i # > p ",
"n f h n s h F v 0 0 ` } p.^.^.s.a.[ B : : 9 n 1 s f > i H b > p ",
"L f n L f h L n v 0 0 0 q V V q B 0 B v F g n b , b p p Q E s ; ",
"L h L Q h c L M *.P W [ W B C S [ S W L [ L L n , f b p s E E 1 ",
"F h F E n n E E L ^ ! L n W *.n E E L L ^ P L L f n ^ H < H $.c ",
"c s b H H H Q ~ ;.~ H ^ Q M Q M H *.^ ^ ! Q n F s n ^ E 1 r M r ",
"s s c M Q U U $.Q Q U ;.~ G Q H L ^ n L ! *.n n s b H b 1 1 N A "
};
