/* XPM */
static char *result[] = {
/* columns rows colors chars-per-pixel */
"32 32 9 1 ",
"  c #8F503F",
". c #9B5643",
"X c #8B6E67",
"o c #C66851",
"O c #A2867D",
"+ c #7C4536",
"@ c #733F31",
"# c #A9948D",
"$ c #B1624D",
/* pixels */
"      .Xo             .Oo       ",
"       O+              O+       ",
"       O+              O+       ",
"      +O@              O@       ",
"       #+              O+       ",
"      +#@              O@       ",
"@+@++@@#@@@+  + +++@++@O@ +++@+@",
"################################",
"$oo$o$o$$.$..$.Ooo$$o$$$$$$.$$.X",
"+             +O+             +O",
"+             +O+             +O",
"+             @O@             @O",
"+             +O+             +O",
"+             @#@             @O",
"+   .  +@@+@+@@#@@+@++@+  ++@+@O",
"################################",
"$$.$$$.Ooo$o$oo$$$.$$$.Ooo$ooo$$",
"       O.             +O        ",
"       O               O        ",
"      +O              +O        ",
"       O.             +#+       ",
"      @O              +#        ",
" +  ++@O++ ++ +  ++ ++@#++ +  ++",
"################################",
".$$$$$$$$..$$$.Xo$oo$$$$.$$$$$.O",
"+              O              +O",
"+              O              +O",
"+              O              +#",
"@              #              @#",
"+              #              @#",
"@@+@+++++++@+@@#@+@@++++@@+@+@@#",
"################################"
};
