/* XPM */
static char *_740a42c87724ce5a3e6c1eb286efe94IAAOBpJQCNU7sAXM[] = {
/* columns rows colors chars-per-pixel */
"64 64 244 2 ",
"   c #03080B",
".  c #050D13",
"X  c #081316",
"o  c #06131A",
"O  c #0A151B",
"+  c #0F171B",
"@  c #0B191D",
"#  c #0D1C23",
"$  c #0A1D27",
"%  c #131D23",
"&  c #151F27",
"*  c #0F2027",
"=  c #0D222B",
"-  c #192427",
";  c #13242C",
":  c #1A252C",
">  c #0E2532",
",  c #132632",
"<  c #1A2631",
"1  c #152935",
"2  c #1C2B34",
"3  c #162C3A",
"4  c #1B2E3A",
"5  c #1A3037",
"6  c #1D313D",
"7  c #262929",
"8  c #37342F",
"9  c #232D36",
"0  c #23333C",
"q  c #2A3538",
"w  c #2C353C",
"e  c #383A39",
"r  c #413E3D",
"t  c #3F403E",
"y  c #42423D",
"u  c #1E3341",
"i  c #233543",
"p  c #273844",
"a  c #2A3A44",
"s  c #253B49",
"d  c #2B3D4B",
"f  c #333E44",
"g  c #353E48",
"h  c #313F50",
"j  c #2D4146",
"k  c #2E414D",
"l  c #384246",
"z  c #33424C",
"x  c #3B454B",
"c  c #2E4352",
"v  c #2F4359",
"b  c #344553",
"n  c #364755",
"m  c #3B4B55",
"M  c #354B5A",
"N  c #3B4D5C",
"B  c #3D515D",
"V  c #3A4E61",
"C  c #3C5363",
"Z  c #3A5669",
"A  c #484745",
"S  c #444A4E",
"D  c #4C4C4A",
"F  c #524E49",
"G  c #52504F",
"H  c #54524D",
"J  c #58544E",
"K  c #434C53",
"L  c #4A4D52",
"P  c #424D5B",
"I  c #4C5256",
"U  c #43535D",
"Y  c #4A5459",
"T  c #4C545B",
"R  c #555453",
"E  c #575757",
"W  c #54595C",
"Q  c #5C5C5C",
"!  c #625C59",
"~  c #63625D",
"^  c #445464",
"/  c #4A5662",
"(  c #4B5A65",
")  c #455768",
"_  c #455A6C",
"`  c #4B5C6C",
"'  c #535C63",
"]  c #595D64",
"[  c #525E6B",
"{  c #485C70",
"}  c #615F60",
"|  c #4E616D",
" . c #5A6165",
".. c #52626D",
"X. c #5B646B",
"o. c #4D6273",
"O. c #4A6779",
"+. c #536474",
"@. c #5A6574",
"#. c #5B6B75",
"$. c #566778",
"%. c #546A7C",
"&. c #5B6C7C",
"*. c #5F707F",
"=. c #646364",
"-. c #6A6663",
";. c #676969",
":. c #6D6B6A",
">. c #726D6B",
",. c #706D6E",
"<. c #73706E",
"1. c #646C73",
"2. c #6A6E73",
"3. c #616D7B",
"4. c #6A7277",
"5. c #64727D",
"6. c #6C747B",
"7. c #747473",
"8. c #7A7574",
"9. c #75787B",
"0. c #7B7B7C",
"q. c #827C7A",
"w. c #85817E",
"e. c #596E81",
"r. c #4F7082",
"t. c #5D7284",
"y. c #5A7588",
"u. c #637383",
"i. c #6A7684",
"p. c #6B7985",
"a. c #667789",
"s. c #647A8D",
"d. c #6C7C8B",
"f. c #737B83",
"g. c #767B85",
"h. c #7B7E84",
"j. c #737D8B",
"k. c #6C7D91",
"l. c #807F81",
"z. c #75818D",
"x. c #7C8288",
"c. c #7C838C",
"v. c #6B8495",
"b. c #748393",
"n. c #748693",
"m. c #7A8593",
"M. c #7C8995",
"N. c #75889A",
"B. c #7C8B9B",
"V. c #7B8EA3",
"C. c #7B92A6",
"Z. c #848384",
"A. c #8A8785",
"S. c #83858C",
"D. c #84888D",
"F. c #8B8A8B",
"G. c #918C8A",
"H. c #96918E",
"J. c #808791",
"K. c #848B94",
"L. c #8A8D94",
"P. c #838E9B",
"I. c #8A8F99",
"U. c #918F92",
"Y. c #8A9196",
"T. c #85919D",
"R. c #8C929B",
"E. c #939294",
"W. c #93959C",
"Q. c #999698",
"!. c #9C9A9C",
"~. c #A09995",
"^. c #A29D9B",
"/. c #A5A19F",
"(. c #818FA0",
"). c #8593A3",
"_. c #8B95A3",
"`. c #8D99A5",
"'. c #8697AA",
"]. c #8C9BAB",
"[. c #939AA3",
"{. c #969BA6",
"}. c #9C9DA3",
"|. c #929DAB",
" X c #8A9EB0",
".X c #949FB0",
"XX c #A19EA3",
"oX c #98A2AC",
"OX c #9CA2AC",
"+X c #8EA1B3",
"@X c #94A2B2",
"#X c #9BA5B3",
"$X c #9CA8B7",
"%X c #9CAABB",
"&X c #A4A2A4",
"*X c #AAA5A4",
"=X c #A4A5AB",
"-X c #A8A7AA",
";X c #ACAAAB",
":X c #B1ACAA",
">X c #B5B0AE",
",X c #A5A9B5",
"<X c #A4AAB4",
"1X c #ABADB4",
"2X c #A4ADBB",
"3X c #B1AEB2",
"4X c #ACB1B8",
"5X c #ACB2BD",
"6X c #B3B2B4",
"7X c #BAB5B4",
"8X c #B4B4BB",
"9X c #B9B8B9",
"0X c #BCBABC",
"qX c #C2BDBD",
"wX c #C3C0BE",
"eX c #9EADC0",
"rX c #A5AFC1",
"tX c #ABB5C3",
"yX c #A9B6C6",
"uX c #B5BAC3",
"iX c #BCBCC3",
"pX c #B3BBC8",
"aX c #B9BECA",
"sX c #C1BFC3",
"dX c #BAC0C8",
"fX c #BCC2CB",
"gX c #BDC7D4",
"hX c #C4C2C4",
"jX c #C4C4CB",
"kX c #C8C6C8",
"lX c #CCCACC",
"zX c #D1CCCD",
"xX c #C5CAD3",
"cX c #C7CAD6",
"vX c #CBCBD2",
"bX c #D1CFD2",
"nX c #CDD1D8",
"mX c #D6D5D9",
"MX c #D4D5DC",
"NX c #CED7E2",
"BX c #D9DBE3",
"VX c #DFE0E6",
"CX c #E6E5EA",
"ZX c #EFEDF3",
/* pixels */
"' X.x.L.Y.W.Y.L.Y.W.S.Q.,.J -.q.G.~.^.:X*X:XG.Q.H.:X7XkXkX9.S l Y  .X.K.g.f.g.2.=XQ -.8.8.~.hXzXlXzXzX2 +.`.B.u.].w z a.p.m.d.n.",
"' ] g.L.W.L.Y.Y.OX=XW.-X-XA -.8.A.G.XX7X/.;X^.>XH.:XqXlXh.L x K T ] 6.K.[.T.x.4.}.[.J -.q.^.kXsXlXbX6X2 &.m.'.]. Xz.p +.d.b.B.).",
"' ;.2.L.Y.x.W.x.Y.6.h.h.!.q.J >.q.A.:XQ.&X*X:X;X:XsXhXS.S Y K 6.1.h.6.I.x.K.R.g.4XE.A ! w.*XqXmXkXkXQ.5 $.].%XB.).tX0 ` b.b.B.@X",
"'  .1.h.K.L.Y.D.W.W.W.E.&X&X7 J 8.^.*X^.&XQ.Q.!.^.hXS.x K ' ;.2.6.L.L.K.[.c.x.Y.1X-X7.! >./.lXkXbXbX7.0 *.).|.N.b.@X; u.b.B.).tX",
"W ' 9.f.9.W.c.x.Y.}.L.}.XX1XF.8 -.8.A.G.E.E.^.^.^.E.l T I 1.6.D.h.[.[.h.K.K.L.<X1X=X-XH >.^.zXzXbXmX=.2 d.@X(.$X]..XU m | N.d.W ",
"' ] 6.h.D.D.K.f.Y.R.h.W.D.-X3Xe ~ -.~ R A e A 8.,.e S I ] 6.K.L.8XoXI.2.Y.6.6.K.-X}.1X} >.!.lXkXzXkXQ i $.b.%X%Xb.|.w m h 9 f :.",
"T ] 2.h.D.c.Y.1.{.h.L.W.S.1XjXe H 7.A.F.0.0.>.E 8.A S X.2.6.OX6.[.4Xc.K.c.x.x.8XOXOX<X1X! 0XlXhXbXhXQ 4 _ B.%XP.B.rX- ( ( P g D.",
"]  .4.f.h.D.K.K.Y.g.L.D.=X3XlXe D Z.F.Q.F.0.Q.h.H.R  .h.D.L.W.W.Y.<XK.f.K.4.h.}.}.<X8X1XR 6X3X6X9XqXe 4 +.m.rXb.N.2X% / +.&./ 9.",
"L  .9.g.6.f.S.L.D.h.W.}.<X8XjXe D =.S.W.!.}.}.Q.Q.!.R 6.g.[.<X=X=X<X}.=XD.K.W.4XfX[.xXiX. % % % + & X M d.].tXN.%XpXX P a.a.3.=.",
"X.' 1.6.6.g.J.D.D.x.Y.OX=XuXlXr D =.E.L.}.8XW.Q.A.9XR ' 6.P.K.<X5X1XW.h.W.[.}.1XjX4XjX& . 2 d 4 2 0 % s u.@X].|.`.yXX m ).N.j.I ",
"I Y X.4.6.K.f.D.K.Y.Y.}.1X8XjXe D R 0.W.6XXXXX}.!.sX-.I 5.z.Y.[.oXY.[.L.m.[.[.dXiXxXw @ % , n i d i n 4 _ B.N.|.pXgXO ^ _.P.+.x ",
" .6.6.6.6.x.Y.D.c.Y.K.=X4XuXuX8 D Q 9.F.-XW.&X=XQ.7X7XS ] 6.[.R.1XK.{.f.I.f.aX<XxXg o # 0 p U d N &.a.; &.+X).'.2XgX% ( R.P.j.K ",
" .K 1.] 6.f.x.L.D.h.}.=X1XuXhXe D R =.Z.Q.}.Q.6X9X0X^.;.Y 4.J.J.I.h.K.g.K.Y.<XiX9.O # , n N U ` ^ a.a.; b u.|.@X2XpX# @._.P.i.3.",
"I W ]  .4.1.4.[.Y.x.}.}.-X1XiX8 D E R Z.Q.1Xh.&X8X0X3X/.e 1.f.f.K.I.[.R.g.OX1XOXX O ; d n [ P ( n a.B.^ 4 +..X%X@XaX; i.P.m.j.m.",
"l W T T ] 2.4.K.Y.f.W.=X=XuXiX7 H E =.F.L.}.D.}.Q.9X6X;X7.Y X.6.c.K.g.K.c.{.4X. O & 0 b b P &.[ u.].).s., ) .XrX|.aX2 @.I.3.3.R.",
"w K W L 4.2.6.f.Y.W.D.[.1X8X8X7 D D 7.Z.Z.&X8X6XXXqX3X6X*Xl T 5.m.c.z.T.1.[.. O # a b N ^ h i.m.b.$X'.v.< e..X@X%X[.0 [ j.@.d.] ",
"O q K Y X.] X.g.Y.S.L.W.}.8XsX7 D A :.h.E.!.1XF.XX7X-X;X3XF.5...g w a z 9 X X # 4 p N ) a.` j.N j.yX`.B.5.t.b.V.'.9 z @.@.j.#Xe ",
"M - w x T X. .D.D.Y.W.L.W.8XiXf r R =.0.D.W.!.=X&X-XQ.*X&XA.; ; , ; ; 2 ; % o 0 P ) +.a.j.( b j.i._.2X#X/ X.i.p.[ - d / ' j.#Xe ",
"y.; 2 l T T 1.g.c.W.W.W.W.<XjXX.A R :.0.S.E.U.!.!.&X!.U.iXQ.@ s d d k d k M + d ` @.3.$.@.@./ 3.P.#X@X( W P.K.P.m.w i / @.[.<XA ",
"s.O.@ q S W  .K.f.I.W.L.L.}.fX{.D R :.w.A.E.XX!.!.;X*X&XkXQ.o a ^ C ^ | N +.o 2 b ` u.^ j...m.j.d.'.j.K f.oX|.<X<X] : / u.aX<XA ",
"t.r.Z - f L f.M.c.I.L.S.Y.L.iXuXA H } <.S.!.!.W.&X&X;X0XiXW.@ < +.` ^ +.&.^ ) # d N c +.^ u.| +.` ].P [ K.OX5XOXnXjX& [ i.aX.XD ",
"v.y.y.; 9 g c.z.g.W.S.K.c.K.[.fXA R :.,.E.E.F.Q.-XXX3X8XMX}.o # U &.+.$.u.u.$.. 6 m ) _ +.@.$.[ b.x ] j.=XOXOXtXxXcX& n %X5XT.R ",
"%.%.y.O.% f z.m.m.K.c.K.K.m.D.4.r H Q Z.F.E.Q.:.E.XX-X0XvXL.o # a $._ u.t.b.b.p # 0 d ^ ( $.+.N ( / j.}.pX<X@XtXxXBXx d $X'.j.Q ",
"$.%.e.s.: 7 f l f q : % o o @ o e E -.F.A.!.}.F.Q.E.;X0XjX=X@ # a ^ &.b.a.i.j.$.@ ; i M ^ M ^ #.K 3.[.uXjX5XB.5XMXMXS.N ` ( P ,.",
"N _ t.s.    O # ; o # = # 1 ; , O D >.Z.<.0.=X&XF.S.6XsXmX3X@ # 4 N a.a.j.B.b.u.; < a b k i f f @.I.4XuXjXuX_.dXMXBXvX6 k M / D.",
"o.%.r.o     o # 3 ; , 4 3 3 4 ^ ) 8 Q 0.8.F.D.h.=XQ.-XiXhX3X@ o i N $.b.B.).i.+.o.2 K '  .W W I P._.aXfXfXuXtXnXBXBXa ) +._ ).=.",
"y.y.#       @ 3 u $ ; 6 4 6 i [ +.< D =.0.q.8.U.=XXXS.8XvX8X@ @ 6 V $.a.a.b.u.u.u.S L.=X&X}.!.' g._.8XaXxXuXnXMXBX6.^ t.s.$.pXI ",
"r.:   .   X # 6 d 0 i a 3 i z ` o.^ - G :.:.Z.}.=X&XQ.Q.mX6X@ # 0 ^ ` b.a.$.u.B.).A 1XhX0X8X1X0.c.`.4XfX<X5XuXMXY.z a.b.a.B.yXS ",
"a     . X # # 3 b s i 6 i i ^ $.$.&.i e G 8.8.&XXX=X}.Q.0X8X@ # a M ` t.u.&.u.N.|.f 1XvXvXiX-XjX[ i._.uX<X2XgXjXw 3.P.`.B.@XgXT ",
"    . . @ $ $ 4 k 1 i 3 a p | +.` $._ X A =.=.-XE.}.}.=X-X8Xo # 0 C +.+.u.&.` ].2XS L.vXMXiX8XlXW p.[.<X[.].nXq U P.#X].@X#XgX=X",
"  . X # = ; 3 , c u i $ 4 d ^ &.&.t.s.v q Q 8.!.&X=X=X=XXX8XO ; k b +.+.+.o.u.).tXS D.vXbX0X8XhX0X1.[.5X@X5XS a i.#XaX].@XuXxXuX",
". o o , = 3 3 3 3 3 i z k M N ` t.$.$.e.; D !.Q.Q.-XQ.Q.W.Z.o # z i +.&.&.a.j.j.$XI L.8XvXuX6X-XhXg.c.5.z.c.: 3.|.tXpX_.$XxXaXa ",
". # * , 6 6 u u s i 4 i i N b +.+.+.&.s._ - 2.6.I 2 2 w 2 - @ , k b d b +.+.a.].`.W W.1XiXhX0X6XhX .J.K._.Y.1.u.M.$X<X`.pXxX' +.",
"o ; = u i 3 s 6 u i 3 d d i N ` B +.&.k.%.O m / U m m / U ^ # , a n N ) ) _ k..XP.W W.8X8XjXsXXXiX=.W.5X1X=X-X$.).$X|.).xX[.n b.",
"# , 1 u 3 3 u , p u u 4 3 M B _ b ) o.a.d @ z 3.+.+.#.5.5.b.b.# 0 p m M ` _ +.@Xf.=.E.&X0X0X8XsXjXW 6.uXuX8XvXB b.).T.).cXa t.z.",
"= , 6 s i s s u 3 6 i 6 i c N v _ C _ a - 2 j 3.#.5.p...5.R.$Xo , 4 i _ ^ ) &.@XX.Q D.}.6X1X&X0XvXL ;.cXxX1XjXU a.B.'.'.T N ].|.",
"= 3 6 u 3 s 6 1 u i u s s M M V ) C k # 2 2 a #.i...5.5.u.`.tX].* i b ` +._ { +.T Q L.Q.6X1X1XhXMXS X.8XjXiXfX1X$.B.u.' 0 b.5X<X",
"= 1 > u > 3 6 > 6 c 3 i s V C C C b # 2 0 w m ` M.p.5.3.P.j.#X$X@ 2 a +.+.^ _ ` A Q F.=X6X=X-XbXCXS 9.4XxXuXdXdXb k n n N @X=X2X",
"# = 3 3 3 1 1 6 6 u u i s s ) ) B @ 2 0 a m | #.P.p.g.j.T._.2XtX].& 0 o._ ` ` U x :.F.=X1X0XiXMXZXL c.<XnX3XuXcX0 a.B.u.d B.).@X",
"# = = 3 3 3 4 = 4 $ 4 4 3 c V M # : 0 j B ) N z.1.p.3.M.M.#X2XtXyX% m i f z K X.{.;.A.&X}.3XhXlXCXL K.8XfX1XiXxX2 _.@XP.m &.T.|.",
"@ # ; = 3 , , , , 3 u i d C C # ; 2 j n N ..5.p.i.B.z.j.@X$X2X2XtXx l ..i.6.j.P.dX] 0.F.}.6X8XiXZXK K.uX8X4X8XMX; `.<XR.#.` b.N.",
". o @ = = , 1 6 3 s u u i V 2 = 2 0 n B B +.u.d.d.M.j.P.@X$XtX4XpXx j m.c.K._._.xXoX .Z.Q.8X8X0XCXS K.4X=X5XuXhX< u.<XR.b./ P.W.",
"  X @ $ = 3 1 d > u i u k 9 # ; 0 j N ^ ^ $.u.u.d.d.B.T.].].].@X5.m P [.R._.{.|.xXpXI 0.Q.0XjX0XbXx Y.-X=X<XdX;.2 +.2X{.`.9.iXvX",
"$ . o # > s u 3 4 4 ; < -   - 5 z ^ U ( $.u.d.b.d.u.'.N.).B.].T.w X.X.m.oXoXc.{.xXxXK.=.6X6X8X-X7 K D.=X=X1XMX7 a 3.M.$X2X7.CXCX",
"Z # . = 2 2 - 7 t A G ~ :.w w j m ^ +.| &.u.d.p.3.j.B.B.).).B.0 m 1.6.P.R.OX=XgXuXxXxXI q q % 2 _ T f.W.OXuXBX- d &.B.`.xX9.ZXmX",
"M Z 3 e 8 A D ~ <.Z.F.F.w.-X9 w m m ( ..+.5.5.5.z.b.).).).'.w x [ x.f.R.{.}.tXdXfXxXnXX % : 0 n ).w 2.R.oXfXMX- b +.P.#XuXZ.CXmX",
"_ Z O.e ~ <.A.q.H.!.!./.Q.0XW q z m U ` #.#.3.5.z.p.B.].).U a / 1.K.K.P.[.<X<XdXfXaX}.o 0 p n ^ #Xz ' c.8XiXuX% z &.'.tX=XW.vXmX",
"C _ v.8 J /.Q.!.!.-X-X*X!.9X0X- f z U ( 1...#.i.` u.N.)...w m #.j.K.K.{.OX=X<XaX5X5XO % n P @.B.<X'.l M.uX5X=X- n &.).uXE.=XhXCX",
"s %.v.7 F q.-X&X;X6X!.;X6X6X9X&Xq f K T X.#.@.$.&.u.z.M.a x ' i.P.R.[.}.OXOX{.uXuXe : h / P j..X2X|.f Y.g.#.$.< N &.].5Xl.}.kXVX",
"_ e.N.7 H :./.-X6X8X&X&X-X/.wXlXW l x Y U ..&.p.5.5.u.9 w ' f.x.R.m.[.R.{.{.5XuX1.# h d m 3.+.|.2X_.L ^ ..j.P.9 h o.)._.Q 6XvXbX",
"O.y.N.7 D J A.*X6X6X3X-X&X>XwXqX9X7 S m ..#.#.x P i , + x  .j.K.x.c.c.[.oX=X5X5X@ 0 N N ^ &.a.2X$X).w d.i.|.5X4.p _ B.b.Q 8XvXbX",
"t.y.C.l A J -.Q.6X0X;X;X*X*X7X9XqXQ.q I w o 3 4 i d M , q ' 5.j.P.x.Y.{.OX<X5Xo ; _ +._ N $.N.).k.a m p.j._.aXgX: &.&.o.;.0XlXmX",
"Z y.V.U A J Q F.*X;X;X&X*X:X^.kX7X7Xh.% 2 i b ^ N ^ o.N.@ l ] p.6.4.K.W.<X<XT O d &.+.&.+.+.&.v.p.z i.5.m.T.5XnX2 $.s.'.W -XlXMX",
"C y.v.` A H -.Z.&X;X;X*X^.*X:X:X;X0X-XX 0 ) ` &.$.^ | B.c @ K 9.2.x.{.[.W.1.o 2 _ +.) N ` ` a.k.9 p.P.M.P.oXfXNXp '. XgXR.E.lXmX",
"O.y.N.s.y H -.<.!.!.6XH.^.^.^.^.9X0X7XO * b _ ^ +._ o.d.k.i q Y 1.T.R.3.[ ( : 0 d N N ^ N _ t.z U T.|._.m.oXpXR.o.yXpXgXxX7.L.[ ",
"O.y.N.'.y H -.-.A.*X*X^.&X&X*X*X&XqXhX@ @ 0 C ` ^ u.$.+.d.t.; K 1.#.+.d.m._.@ 0 b b b M b V ` z d._.<XK.M.2X5Xn `.yXrXgXNXq ` d.",
"O.O.v.C.y F ~ 8.E.!.!.A.^.:X9X:X>XwXlXO O * u N b ) ) t.+.B.e.7 6.B.'.#X@X|.T.: d d k b d m w ( j..X`.P.m.pX( N.2X$XyXgXfXN m.b.",
"o.y.y.C.y F :.7.A.H./.G.G.^.7X*X9X0XvXO O o 6 ^ ` C c N t.@.).q c.#X$X2X$X#XtX2 2 4 h b T ] a d.M.T.].B.M.|.M rXpX].pXyXn j.N.).",
"| | y.C.e H -.<.F.F.w.G.Q.&X3X9X7X0XbX@ @ @ , i N V b c +.k.b.w ' @X<X2X|.#X2X`.< a X.K.=X1XU ..&.).B.z.P.z b.rXyX%X%Xm.3.).B.B.",
"M C y.C.w H :.0.F.G.G.H.H.*X;X0X6XhXmX@ O @ ; 1 b N M ) ) e.&.w K _.2X5X@X@X$XtXw K.1X0XiXvX2./ @.z.B.N.[ N '.eX X+XrXm )..Xd. X",
"N C Z v.m F ~ 8.Z.G.A.G.H.*X-X6X0XkXbX@ @ % , s s s k k _ k.$.w K 6.oX<X`.|.#XtXR L.iXjXxXvXMXK [ d.p.| , $.C.+X'.'.[ d.%X(.a.`.",
"b M c o.S D Q 7.0.w.A.G.G.-X*X7X9XlXmX@ @ % 1 4 d d 4 6 ) s.).q K 1.|.<X_.T.|.2XS 9.lXvXnXvXBXK ( z ` t.b o.N.'.'.C.N '.'.&.V.2.",
"c b i 3 % H -.<.A.:.8.G.^.-X&X^.6X9XmX@ O # , i a p c C _ e.'.w I 1.[.oX_._.`.2XW ] 3XvXjXvXMXlXM +.b.N.).n y.C.b.m o.&.s.t.j.&X",
"3 = 5 z t.7 Q :.8.>.8.A.!.&X*X&X!.hXmXO @ # 0 = p i s M { s.B.w K 5.R.R.M._.T.pXI =.Y.hXjXjXMXkXz b.d.k.$Xi $.).2X#Xn o.t.+.=.jX"
};
