/* XPM */
static char *_171b299c7e940bde78363febee1361e3GBMkcbHZLcfqkDz[] = {
/* columns rows colors chars-per-pixel */
"32 32 139 2 ",
"   c #1F1B18",
".  c #291F16",
"X  c #292017",
"o  c #2C241B",
"O  c #32261B",
"+  c #34291E",
"@  c #3B2B1C",
"#  c #2B2620",
"$  c #352B23",
"%  c #392E24",
"&  c #342D28",
"*  c #3D3226",
"=  c #37322B",
"-  c #3C332B",
";  c #3C3631",
":  c #462715",
">  c #452A17",
",  c #49271B",
"<  c #5A351B",
"1  c #423124",
"2  c #42362C",
"3  c #44392E",
"4  c #493A2D",
"5  c #573D2C",
"6  c #443B33",
"7  c #4A3E33",
"8  c #453F39",
"9  c #483F38",
"0  c #553F31",
"q  c #4C4136",
"w  c #4C433C",
"e  c #534335",
"r  c #5E4333",
"t  c #53453B",
"y  c #54493E",
"u  c #5B4B3C",
"i  c #634E3D",
"p  c #4C4641",
"a  c #4F4943",
"s  c #544B43",
"d  c #5B4E42",
"f  c #544F49",
"g  c #584F4A",
"h  c #5C5045",
"j  c #54504C",
"k  c #5B534B",
"l  c #5B5753",
"z  c #5F5A57",
"x  c #604E40",
"c  c #625142",
"v  c #6B5644",
"b  c #6E5945",
"n  c #63564B",
"m  c #65594E",
"M  c #6B5B4C",
"N  c #745C47",
"B  c #715C4D",
"V  c #655C54",
"C  c #6A5D52",
"Z  c #615C5A",
"A  c #715F51",
"S  c #73614D",
"D  c #6B6157",
"F  c #66615D",
"G  c #6B635B",
"H  c #716254",
"J  c #786755",
"K  c #7E6956",
"L  c #73675C",
"P  c #72685F",
"I  c #7A6A5C",
"U  c #6B6662",
"Y  c #6E6862",
"T  c #726761",
"R  c #736B65",
"E  c #796F65",
"W  c #746E6A",
"Q  c #786F68",
"!  c #7C7166",
"~  c #76716C",
"^  c #7B736C",
"/  c #767270",
"(  c #7C7672",
")  c #7E7974",
"_  c #7E7B79",
"`  c #826650",
"'  c #826D5B",
"]  c #8D7257",
"[  c #94795B",
"{  c #837262",
"}  c #897665",
"|  c #81776C",
" . c #83796D",
".. c #837B74",
"X. c #887E75",
"o. c #847E7A",
"O. c #8A7F78",
"+. c #8B8176",
"@. c #86807B",
"#. c #8A837C",
"$. c #8F887E",
"%. c #91877E",
"&. c #968B7C",
"*. c #9C8F7F",
"=. c #A28366",
"-. c #858281",
";. c #8C8682",
":. c #8E8984",
">. c #908781",
",. c #928B84",
"<. c #918C86",
"1. c #938C86",
"2. c #968D84",
"3. c #958E86",
"4. c #988B82",
"5. c #9A8E82",
"6. c #928D89",
"7. c #968F89",
"8. c #938F8C",
"9. c #979086",
"0. c #9F9282",
"q. c #9A9087",
"w. c #96938E",
"e. c #99928A",
"r. c #9B948A",
"t. c #9A938D",
"y. c #9C938C",
"u. c #9B948E",
"i. c #9D948D",
"p. c #9B9591",
"a. c #9E9994",
"s. c #A1978D",
"d. c #A5998D",
"f. c #A09993",
"g. c #A29B95",
"h. c #A39C96",
"j. c #A7A09A",
"k. c #A6A39E",
"l. c #AAA198",
/* pixels */
"u s 7 a ;.| = t.e.o.o.#.6 $.>.>.<...t.,...p.@.- 7 s c % t B < u ",
",.w ;.k.6.) 5 ..<.q.^ ..2 #.+.w.:.7.@.;.w.l.D w 3...;.R 6 W ~ ~ ",
"t 6 1 1 e X.n 7 * G 7 t s.Q $.0.q.1 X.&.5.#.r.t n q 4 h e H - o ",
"@...x l ~ R  .a $.:.q...4 7.^ W >.D s T l f.w.#.: j.;.g...^ > ..",
"I s i # 4 C $ + 2 o 7 4 c 3 t - - o @ w + @ % e 4 u ..t + 6 e k ",
":.3...R R #.  - *.| ! 7 ^ @.y.w.7.+ w o.h.u.h X.@.8...% h e.#...",
"( * ~ ~ ( y ) @ *.&. .+.o O p ~ @.8 r 6.;.p.^ W 8 :.W d @.#.3.@.",
"^ :...s ,.0 % O 2 1 p 6 o 3 - 2 s k q h w 8 * 3 ; d w q 6 6 ; P ",
"3.#.o.;._ p W ;.i.7 ^ >...m - %.4...+.#.$ %...9.) s X.@.~ } o.$.",
"^ / Q o.(  .~ @.@.7.E ( D Y @.6 T q.$.d.^ #.z Y Y w Z m >.C s ^ ",
"7 A a $ 6 7 E r.3.~ . 8 k t 6 - m @ & = & o ^ :.:.t.<.u #.w d y ",
"$ ~ @.o.f f 6.;.#.#.R 6 ..o.r.:.p.@.& G ..w #._ #.o.R v ..<.%.7.",
"7 k ~ @...U ) o.;.3...| $.,.( :.6.l q :.@.O 6 ^ o.6.$.3 i.o.^ o.",
"D O 7 @.^ # s 6 - K d a ( #.( 6.@.4 $ w y - - o - k I [ q s 6 * ",
";.@.,.;.Z k :.) ;.6.z s W w.~ :.F 3.( o.@.k ....j ) e ^ 6 ~ ,.>.",
"u I $ X 7 4 p.6.p.@.G q V l O...6.o.o.l P D i.D a.O.u ^ t s ) @.",
"o.B R #.W W ^ @.s n ;.W G L ( ) / w.6 &.w - - 4 - + $ w w n ^ o.",
"o.:...u Y R ~ ) C #.w.~ ~ q D ;.~ 6.& o.<.G ^ t w.W U o.-.T -.) ",
"..@.~ @.;.^ D ,.k - b u 7 a ~ h % - $ ~ 4 1 k m 6 c 1 S e k ] r ",
"R Z o._ U ^ o.:.#...D :.;.^ o.' ! ^ X.q $.7...~ ..:.( ;.J >.>...",
"| #.Z Z u.~ ^ o.U o.} F $.$.u.7 w W ( 1 W ....` :.i.p.6.m V R #.",
":.y >.a.3...t b 7 7 ;.e { n t t 7  .- R 3.>.s k u d t d D x { ) ",
"@.4 :./ :.e.% R #.@.7.7 6.y #.G 6.:.v y H P ..G 2 e. ...^ u t.;.",
"q ' ( o.o.a.+ ^ ( W o.w ,.- 7.) ..^ 1 - k R ..V :.R $.a.M m h 4 ",
"t.R u.R 1 T ( k t L ..~ k M 4 e - 4 j y C s ,.E <.a.^ m m e ' W ",
"( ( R E C #.@.,.@.3 o.@...G y 7 -.W o.:.^ V N ..;.( W ,...~ ) ;.",
"@ @ D h 7 u 2 e 4 n H %.#.q.W  .7 #.s y N t 4 t 4 3 s V | u o 6 ",
"3 #.t.u.@.3.;.~ W g.,.W 6.o.@.o.u @.<.@.;.>.:.>.7 :.;.( @.9 ..^ ",
"3 ( ;.:.:...m @.:.( ~ n -.-.6.>.3 R o.R / :.w.^ t ;.o.3.:.) R @.",
"q h 3 d s p ~ +.3 2 g - 6 o 6 - y * y $ 7 C - 8 h 3 & 6 % y C , ",
"h =.% 3.W X...^ R $ R m X.E P 2 $...W ..n f Z 6._ w  .s o.;.^ 2 ",
"7 @. .$.#.#.! - # 6 o 8 ^ 7 D C 6.3.#.( 6 I ,.W ..h ! 3 X.f.^ 4 "
};
