/* XPM */
static char *result[] = {
/* columns rows colors chars-per-pixel */
"64 24 219 2 ",
"   c #55310C",
".  c #56310C",
"X  c #56320C",
"o  c #57320C",
"O  c #57320D",
"+  c #57330D",
"@  c #58330D",
"#  c #59340D",
"$  c #5C360E",
"%  c #5C370F",
"&  c #5E380F",
"*  c #5F380F",
"=  c #603A0F",
"-  c #603A10",
";  c #613A10",
":  c #623B10",
">  c #643C11",
",  c #643D11",
"<  c #653D11",
"1  c #653E11",
"2  c #663E11",
"3  c #663F11",
"4  c #673F12",
"5  c #683F12",
"6  c #684012",
"7  c #694012",
"8  c #694112",
"9  c #694013",
"0  c #6A4113",
"q  c #6B4213",
"w  c #6C4213",
"e  c #6C4313",
"r  c #6D4313",
"t  c #6C4314",
"y  c #6D4314",
"u  c #6D4414",
"i  c #6E4414",
"p  c #6F4414",
"a  c #6E4514",
"s  c #6F4514",
"d  c #6F4515",
"f  c #704514",
"g  c #704614",
"h  c #704615",
"j  c #714615",
"k  c #714715",
"l  c #724715",
"z  c #724815",
"x  c #734815",
"c  c #734816",
"v  c #744815",
"b  c #744915",
"n  c #744816",
"m  c #744916",
"M  c #754916",
"N  c #754A16",
"B  c #764A16",
"V  c #774B16",
"C  c #764B17",
"Z  c #774B17",
"A  c #784B17",
"S  c #784C17",
"D  c #794C17",
"F  c #794D17",
"G  c #794D18",
"H  c #7A4D18",
"J  c #7B4D18",
"K  c #7A4E18",
"L  c #7B4E18",
"P  c #7C4E18",
"I  c #7C4F18",
"U  c #7D4F19",
"Y  c #7D5018",
"T  c #7E5018",
"R  c #7E5019",
"E  c #7E5119",
"W  c #7F5119",
"Q  c #805119",
"!  c #805219",
"~  c #815219",
"^  c #80521A",
"/  c #81521A",
"(  c #81531A",
")  c #80521B",
"_  c #81531B",
"`  c #82521A",
"'  c #82531A",
"]  c #83541A",
"[  c #84541A",
"{  c #84551A",
"}  c #85551A",
"|  c #84551B",
" . c #85551B",
".. c #86561B",
"X. c #87561B",
"o. c #86571B",
"O. c #87571B",
"+. c #81521C",
"@. c #86561C",
"#. c #87571C",
"$. c #86561E",
"%. c #88571C",
"&. c #88581B",
"*. c #88581C",
"=. c #89581C",
"-. c #8A591C",
";. c #8A591D",
":. c #8B5A1C",
">. c #8B5A1D",
",. c #8C5A1D",
"<. c #8C5B1D",
"1. c #8D5B1D",
"2. c #8D5B1E",
"3. c #8D5C1D",
"4. c #8E5C1D",
"5. c #8D5C1E",
"6. c #8E5C1E",
"7. c #8F5D1E",
"8. c #905D1E",
"9. c #905D1F",
"0. c #905E1E",
"q. c #905E1F",
"w. c #915E1F",
"e. c #925E1F",
"r. c #925F1F",
"t. c #935F1F",
"y. c #945F1F",
"u. c #94601F",
"i. c #94611F",
"p. c #946120",
"a. c #956120",
"s. c #966220",
"d. c #976220",
"f. c #976321",
"g. c #986321",
"h. c #996321",
"j. c #986421",
"k. c #996421",
"l. c #996521",
"z. c #9A6421",
"x. c #9B6521",
"c. c #9C6622",
"v. c #9D6622",
"b. c #9D6722",
"n. c #9D6723",
"m. c #9E6722",
"M. c #9E6723",
"N. c #9E6822",
"B. c #9F6822",
"V. c #9E6823",
"C. c #9F6823",
"Z. c #9F6923",
"A. c #A06823",
"S. c #A06923",
"D. c #A06A23",
"F. c #A16924",
"G. c #A16A24",
"H. c #A26A24",
"J. c #A26B24",
"K. c #A36B24",
"L. c #A36C24",
"P. c #A36C27",
"I. c #A46C24",
"U. c #A56C24",
"Y. c #A46C25",
"T. c #A56D25",
"R. c #A66D25",
"E. c #A66E25",
"W. c #A76E25",
"Q. c #A76F25",
"!. c #A66E26",
"~. c #A86F26",
"^. c #A96F26",
"/. c #A96F27",
"(. c #A97026",
"). c #AA7026",
"_. c #AB7126",
"`. c #AA7027",
"'. c #AA7127",
"]. c #AB7127",
"[. c #AB7226",
"{. c #AC7127",
"}. c #AC7227",
"|. c #AD7227",
" X c #AE7327",
".X c #AF7327",
"XX c #AF7427",
"oX c #AB7129",
"OX c #AC7228",
"+X c #AD7229",
"@X c #AE7328",
"#X c #AE7428",
"$X c #AF7428",
"%X c #B07428",
"&X c #B17528",
"*X c #B17529",
"=X c #B27629",
"-X c #B37629",
";X c #B37729",
":X c #B0752A",
">X c #B57829",
",X c #B5792A",
"<X c #B4782C",
"1X c #B77A2D",
"2X c #B87A2B",
"3X c #B97B2B",
"4X c #BA7C2B",
"5X c #BB7C2B",
"6X c #BC7D2B",
"7X c #BD7E2B",
"8X c #B87A2D",
"9X c #BA7C2C",
"0X c #BB7D2C",
"qX c #BA7C2D",
"wX c #BD7E2C",
"eX c #BE7E2C",
"rX c #BF7F2C",
"tX c #BF8133",
"yX c None",
/* pixels */
"yXyXyXyXyXyXyXyXyXyXyXyXyXyXyXyXyXyXyXyXyXyXyXyXyXyXyXyXyXyXyXyXyXyXyXP.0X4X>XyXyXyXyXyXyXyXyXyXyXyXyXyXyXyXyXyXyXyXyXyXyXyXyXyX",
"yXyXyXyXyXyXyXyXyXyXyXyXyXyXyXyXyXyXyXyXyXyXyXyXyXyXyXyXyXyXyXyXyXI | <XeX7X|.yXyXyXyXyXyXyXyXyXyXyXyXyXyXyXyXyXyXyXyXyXyXyXyXyX",
"yXyXyXyXyXyXyXyXyXyXyXyXyXyXyXyXyXyXyXyXyXyXyXyXyXyXyXyXyXyXyXyXyXx ) qXrXrX&XyXyXyXyXyXyXyXyXyXyXyXyXyXyXyXyXyXyXyXyXyXyXyXyXyX",
"yXyXyXyXyXyXyXyXyXyXyXyXyXyXyXyXyXyXyXyXyXyXyXyXyXyXyXyXyXyXyXyXD m ^ 2XrXrX@XyXyXyXyXyXyXyXyXyXyXyXyXyXyXyXyXyXyXyXyXyXyXyXyXyX",
"yXyXyXyXyXyXyXyXyXyXyXyXyXyXyXyXyXyXyXyXyXyXyXyXyXyXyXd.F.4...x m M +.<XwXwX6XyXyXyXyXyXyXyXyXyXyXyXyXyXyXyXyXyXyXyXyXyXyXyXyXyX",
"yXyXyXyXyXyXyXyXyXyXyXyXyXyXyXyXyXyXyXyXyXyXyXyXyXyXyX(.h.( { I H J $.1XwX5X,XyXyXyXyXyXyXyXyXyXyXyXyXyXyXyXyXyXyXyXyXyXyXyXyXyX",
"yXyXyXyXyXyXyXyXyXyXyXyXyXyXyXyXyXyXyXyXyXyXyXyXyXyXyXL.].| U { ] K 6.}.S.[.I.yXyXyXyXyXyXyXyXyXyXyXyXyXyXyXyXyXyXyXyXyXyXyXyXyX",
"yXyXyXyXyXyXyXyXyXyXyXyXyXyXyXyXyXyXyXyXyXyXyXyXyXyXb.Q.#XK.L l I ..:.| B N =.b.D.I.yXyXyXyXyXyXyXyXyXyXyXyXyXyXyXyXyXyXyXyXyXyX",
"yXyXyXyXyXyXyXyXyXyXyXyXyXyXyXyXyXyXyXyXyXyXyXc.l.C.~.OX$X*XJ r f B ' O.O.{ I i M =.N.I.Z.yXyXyXyXyXyXyXyXyXyXyXyXyXyXyXyXyXyXyX",
"yXyXyXyXyXyXyXyXyXyXyXyXyXyXyXyXyXyXyXyXyXyX2.M.|.OXR.'.&X%XB v i i x I ..O.O.O.~ m 7 l <.K ^ 3.i.yXyXyXyXyXyXyXyXyXyXyXyXyXyXyX",
"yXyXyXyXyXyXyXyXyXyXyXyXyXyXyXyXyXyXyXyX6.c.g.g.n./.OXv.Y.yXl n c i i l S { O.O.O.O.~ B c l l I l.J.J.yXyXyXyXyXyXyXyXyXyXyXyXyX",
"yXyXyXyXyXyXyXyXyXyXyXyXyXyXyXyXyXt.R ..A.;X+Xn.#Xz.OXa.yXyXN x P c u i l B W ..O.O.O...! A n l S 5.Z.J.J.yXyXyXyXyXyXyXyXyXyXyX",
"yXyXyXyXyXyXyXyXyXyXyXyXyXyXyX1.D.@X^.=.>.:XtXoX!.G.R.yXyXyXD A ;.I l i y l l Z ] O.O.O.O.o.] I M x / I.~.^. XyXyXyXyXyXyXyXyXyX",
"yXyXyXyXyXyXyXyXyXyXyXyXyXZ m P s.S.{.T.#.C.8X9XS.k.J.yXyXyXx P =.B x l i q j l n Y ..O.O.O.O.O.} T  .b.B.R.W.yXyXyXyXyXyXyXyXyX",
"yXyXyXyXyXyXyXyXyXyX,.=.W #.W G ] u.I._.q.a.).3XI.6.yXyXyXyXh _ J.] l l l p 9 s l l Z ] O.O.O.O.O.,.r.8.a.z.K.W.R.yXyXyXyXyXyXyX",
"yXyXyXyXyXyXyXyX-.( W e c 7 g F L ( x. Xb.9.D.-Xk.yXyXyXyXyXh R W.p.B D m l j 9 i l l n Y ..O.O.-.e.6.6.6.r.k.S.W.W.U.yXyXyXyXyX",
"yXyXyXyXyXyXyXm.4.-.b 3 w > % # - < U |.`.#.H._.yXyXyXyXyXyXc r.XXt.=.@.I l l k 9 t l l l V Q &.8.7.7.7.6.6.w.j.S.T.T.I.K.yXyXyX",
"yXyXyXyXyXyXd.W q 2 $ # @ O + . X O , k.=X' E.yXyXyXyXyXyXyXH '.&XyX-.' X.l l l l 0 q l l l x -.Q #.6.7.7.7.w.u.z.B.K.T.I.I.J.yX",
"yXyXyXyXyX>.L 1 : #                 & ,.&X%.yXyXyXyXyXyXyXyXr.%XyXyXh s a l l l l l 4 y l l S  .k H *.6.7.0.t.t.y.z.N.H.Y.W.(..X",
"yXyXyX[ P l 5 0 6 X                 X ` J.yXyXyXyXyXyXyXyXyXyXyXyXyXyXl d s l l l l l 6 0 l ..B k H I | 1.0.w.w.w.e.a.N.V.f.9.6.",
"yXyXQ Z j 6 : > &                     * ..yXyXyXyXyXyXyXyXyXyXyXyXyXyXw 4 i z k l l l l 8 L W k k C I N L | ;.>.>.<.7.q.w.w.w.w.",
"yXR ( R S S x :                         yXyXyXyXyXyXyXyXyXyXyXyXyXyX@ ; o = m R j l l l l c z k k I N l l N E #.1.1.,.6.7.8.w.w.",
"yXyXyXyXyXyXyXyXyXyXyXyXyXyXyXyXyXyXyXyXyXyXyXyXyXyXyXyXyXyXyXyXyXyXyXyXyXyXyXyXyXyXyXyXyXyXyXyXyXyXyXyXyXyXyXyXyXyXyXyXyXyXyXyX",
"yXyXyXyXyXyXyXyXyXyXyXyXyXyXyXyXyXyXyXyXyXyXyXyXyXyXyXyXyXyXyXyXyXyXyXyXyXyXyXyXyXyXyXyXyXyXyXyXyXyXyXyXyXyXyXyXyXyXyXyXyXyXyXyX"
};
