/* XPM */
static char *result[] = {
/* columns rows colors chars-per-pixel */
"32 32 22 1 ",
"  c gray12",
". c gray23",
"X c gray34",
"o c #535353",
"O c gray31",
"+ c #4B4B4B",
"@ c LightGray",
"# c #DFDFDF",
"$ c #838383",
"% c gray67",
"& c #B7B7B7",
"* c gray28",
"= c gray78",
"- c gray56",
"; c #5F5F5F",
": c #9B9B9B",
"> c #7B7B7B",
", c gray45",
"< c #EFEFEF",
"1 c gray42",
"2 c #3F3F3F",
"3 c #676767",
/* pixels */
" . . . . . . . . . . . . . . . .",
"XoXOXOXOXO+@###@#@###@#@### .$%&",
"oXooXoooXo*#@=@&@@@=@@&@@=- .$=&",
"--$---$- o+#==&@&==&==&&@-; .%@%",
"@@@@&%-$ X*#@%%:%-%%%%:%%>o .-&-",
"%%%%:%>, o*<&:%%%%:%-%$%%1o .*%-",
"&:::%->1 +*<@%$%-%-:::--%-O .*>-",
"&%$&$:;X .*<=-:-%%:->--%-;X .**-",
":%%-:,*+  +=&%:%$%-:$:--%1o  +o*",
"--$-,o** .*%<%:%------$%$X>  .*.",
",1,,O+..  +-@-%-->--%$%-%1X. .*.",
"oX***    .2,#%$:>>>%:-$>-13. .**",
"     . . .o*#=---::$-%>-%-O. .2,",
" . .  . ..O*%@-%$>-%-$:-$,O.  .%",
"..........++-=%$%:$>->-%-OX. .2%",
"o+...... .o*,=$%:-%:%$%$%O,*  +%",
"::-:-:-::  X*=&:-$::,----1Xo  +%",
"@=@@=@&%,2 X*-&-%->--$%-1-1+  +%",
"%:-%-%%1,. o*,:%$%%$%,-1o,o+  +%",
"%-:-%$-1,. *o*:-,,1,oo,O,o*   .:",
"%--%$%%1X. *o*3oXoX***.        -",
"%-%-%$-,O. *o* . .            ..",
"-%,>--%1X. .OX+.        O++O++*-",
"-$$>-%$3*. .$###@=%%-;.+3>%%&==#",
"--%%$--;+. .@=%-::%-:.O+>@<##=&&",
":%$-%$,o.. .#:-:%%-:% o+:#=-%$%:",
"3;3;3o*... .@%%%$%-%; +*:<%:%->%",
"o+*...     .#$%-%%->; +*:<$%-:%$",
"       . ++*#%:$%-%>; .*:<--%$->",
"*331-:-$--* #%,:-%$$3. *-<%-$->-",
"3-&#@#@@=%, #%%$>-%$3. *-#&:-%-%",
"3%@==&%%:%2 <-:%>-%:1* +>@=%$-,-"
};
