/* XPM */
static char *result[] = {
/* columns rows colors chars-per-pixel */
"32 32 22 1 ",
"  c gray25",
". c gray19",
"X c #343434",
"o c gray33",
"O c gray44",
"+ c #6C4824",
"@ c #5C4020",
"# c #483818",
"$ c #7C7C7C",
"% c #543C1C",
"& c gray22",
"* c #646464",
"= c #80502C",
"- c #484848",
"; c #403018",
": c #744C28",
"> c #2C2C2C",
", c #202020",
"< c #282828",
"1 c #4C4C4C",
"2 c gray55",
"3 c gray11",
/* pixels */
"     .  XoO+++@@@@@@@#@@@$%#####",
"    &. &.o*+@+@@@@@@@#@@%*%##%##",
"    &. &.*o=@+@@%@@@@#@@%*%#####",
"    X. .*O-=@+@@@@@@@#@@%*;#####",
"    X.&-OO+=@+@@@@@@@#@@%*-;####",
"    ..Xo$*+=@+@@@@@@@%@@%**-;###",
"    ...*$o+=@@@@@@@@%%@@%*$*-;##",
"    ..-OO+@=@+@@@@@@%@@@#*$$*-;;",
"    ..o$*+@=+@@@@@@@%@@@#*$$$*--",
"    ..o$o+@=:@@@@@@%@@@@#*>>&o**",
"   &.-*O+@@:=@@@@@@%@@@@#*>>>>&o",
"   &.oO$+@@+=@@@@@%@@@@@#*>>>>,>",
"&  &.*$$%@@@:@@@@@@@@%@@#*>>>>,>",
"X  X-OOO*%@@++@@@@@@@@@@#*>>>>,>",
"X&&.o$OO$*%@@+@@@@@%%@@%#*>>>,>>",
"....O$*&&**%%@+@@@@%%@%#-*>>>,>>",
"*oo*$*&>>&*O*%@@@@@@@%#-**,,,,,,",
"-$$$*&>>>>&*O*%%@@@@%#-*O$$-----",
"#-$$-&>>>>>&*OOo%%%##-*oooooo*$$",
"#;$*&<>>><<>&*$Oo%#--**oooooo-*$",
"#;$&>><>><<>>&*$Oo--*$ooo1ooo-*$",
";-*&>>>,<>>>>>&*$O**2*11oooo1-*$",
"-*&>>>>>,,><>>>&*$O22o11oooo1-*+",
"o&&>>>>><,,<>>>>&*$2*oooooo1--*+",
"*&>><<>>><,,<>>>>&*$ooooooo--o+@",
"-&>><<<>><,,,<>>>>&*$ooooo-1-*+@",
"&&>><<><>>,,,,<>>>>&**ooo1--o+@@",
">&>>>>>>>><,,<,<>>>>&*111-1-o+@@",
">&>>>>>>>><,,,<,<>>>>,*1-oo-+@@@",
">&>>>><<>>><,3<<,<>>>,o*oo1*+@@@",
">&>>>><<>>><,3,>,,<>>,o$11*+@@@@",
">&>><>>>>>><,3,><,,<>,o$$**+@@@@"
};
