/* XPM */
static char *result[] = {
/* columns rows colors chars-per-pixel */
"32 32 16 1 ",
"  c gray22",
". c #000070",
"X c #00007C",
"o c #000088",
"O c #202020",
"+ c #0000A4",
"@ c #0000BC",
"# c black",
"$ c #000098",
"% c #000058",
"& c #0000B0",
"* c #000064",
"= c #0000C8",
"- c #000040",
"; c #0000E0",
": c #0000D4",
/* pixels */
" .XXXXXXXXXXXXXXXXXXX.  oooooooo",
"O+++++++++++++++++++++OO@@@@@@@@",
"#+++o+X++$X$$X$$X+X..%#O@+@&X+@$",
"#+$Xo$$$XX+$+*$$X.XX.*#O@@+$$$.$",
"#+o+.==$XXX$ooX*%X.%%*#O########",
"#+oX+==*XXX+$$$o..X%%-#O++++++++",
"#+$$&&+++$+++$$..*%*.*#O+@@@&+$$",
"#++$+&&+$X*++$ooX**%--#O+&@;=&+@",
"#+$X$++o$X$..ooo.XX*%-#O+&=@=$&+",
"#+ooo+XXX++.%**.*XXX%-#O+&&&$$$&",
"#$Xo+oo.$++..*%***XX%-#O+@&&&$$&",
"#$o$XX+o*X%X*%*X-%--*-#O+@++&&&&",
"#$X$X*ooX*X*X*-..---*-#O+&++$@$$",
"#$$XXX.*%%*X*.*--.-*%-#O+&;=oo$$",
"#$X$**.*X*------------#O+@==ooo+",
"#######################O+@++$oo+",
"+@&+&+++++&++++#&&&++$$#+&$+o$++",
"@&+$+@&+o++X+$X#&&$@@X@#++++@+$+",
"@&$$o++oX$$XX$$#&@@&$XX#+&$+@+oX",
"&+$&&$$XXX$XXXX#&@&&$$*#+&+++o+X",
"+o$&@&XX$$X$%XX#&@$X$$*#+++$$$$X",
"++o$&:X$XX**.XX#&$@XXX*#########",
"&oXo$+$XX$*.X%%#&$$*XX%#OOOOOOOO",
"&+o$X$X$$X.X*X%#&@$o*%*#O&&&&&&&",
"&&$o&$$$$XX.%%%#+@Xoo*%#O&@&+@@@",
"&+oXo&&*X$oo.%*#+X*..%*#O&@+&=;;",
"+$Xo+&&+$Xoo.%*#$X%%%%*#O&&+@::;",
"&$&$$+&+*X...%%#########O&@@&&==",
"+oo++$++*.%*%--#OOOOOOOOO&&@&&&+",
"+$o+++$X.*%**%%#O&&&&++OO&++@&oo",
"$o$o++X**%%%*-*#O&&o+$o#O&@&@&oo",
"$ooXooX**.XX*--#O&++$o$#O&@@+&&&"
};
