/* XPM */
static char *result[] = {
/* columns rows colors chars-per-pixel */
"32 32 23 1 ",
"  c gray22",
". c gray33",
"X c #484848",
"o c #EC0000",
"O c #D40000",
"+ c #A40000",
"@ c #C80000",
"# c #B00000",
"$ c #880000",
"% c #640000",
"& c #2C2C2C",
"* c #BC0000",
"= c #7C0000",
"- c #980000",
"; c #700000",
": c #580000",
"> c #400000",
", c #4C0000",
"< c #202020",
"1 c #343434",
"2 c gray25",
"3 c gray36",
"4 c #646464",
/* pixels */
"                                ",
". .XXXXX.XXXXXX.X XXXXXXX......X",
" ooOOOOOOOOO+XX.ooOOOOOOOOOOOOOO",
"Xo@##O$+O$@+%&X.o*$*$*$*=*-*-*=*",
"XO+=+$+-;+$;%&X.O*$$+$;++;-++;-+",
"XO=++;-++;+:>&X.O$*+$+;+$+;+;$=+",
"X@+=$-=+;$+;>&X.**$+$$-+;$;+$;-=",
"X*=++;+-;-;:>&XX*@$+;+;+;+;-$;=+",
"X*+;$:;=:;$;>& .--;;,$;;$;,;$;$;",
"X=%%%>>>>>>>>& X=%%:::::::::>>>>",
"XX&&&&&&&&<<<& .X&&&&&<<<<<&&<<<",
".    XXXX     X XXXXXXX   .XXX  ",
"oOOO***********+X.XooOOOOOO@@@@@",
"#$$#-=#=-$#%#$+> X.o;#@=*%$*$$@-",
"$+$+=$$%+$%$++;>&XXO#;+=++$+%+;%",
";++$-%+=$$-%+$;>& XO;+$-$$%$$;+$",
"+$$+$==$=+-%+%;>& XO;++=+%$+%;+%",
";+%+;$=-%+%$++;>&X.O#:+=+$%$:$;%",
";#%;,=;-;-;:-;;>&X.#+;$:;-;$%;$:",
">,,,,,,,,,,,,>>> X.+%%%%%%%%%%%%",
"&&&<&&&<<<&&&<<& X X 1&&&&&&11  ",
"..X  X. . XX    XX.XXX2 2 2 2XXX",
".ooOOOOOOO*****************+X..o",
".o$#*=*=*=#$#$#@$#$#$*#%#@;> X.o",
" o#$+-+=;$++$-$+$%+;+$%$+;#>&X3O",
"X*%++;$:+%+;+$-+%$+;$+$%=+;>&.4O",
"X*#$+,+:;$+$;=+=$%=+%+$%+;:>&.3O",
".*;%+,$=+%+:+%+$%$+$%+%$==#>&X.O",
"X@+%;;;:;,;;$%$;;$;;%;-;-;;>& .@",
"X+-%%%%%%%%%%%%%%,,,,,,,,,>>& .+",
"XX &&&&&&&&&&&&&&&&&   &&&&&&XXX",
".....XX X   X.44...XXX22  2  2.X"
};
